<?xml version="1.0" standalone="no"?><!DOCTYPE svg PUBLIC "-//W3C//DTD SVG 1.1//EN" "http://www.w3.org/Graphics/SVG/1.1/DTD/svg11.dtd"><svg t="1729079685503" class="icon" viewBox="0 0 1024 1024" version="1.1" xmlns="http://www.w3.org/2000/svg" p-id="7041" xmlns:xlink="http://www.w3.org/1999/xlink" width="200" height="200"><path d="M949.333333 445.866667v16c-1.066667 16 1.066667 28.8-27.733333 43.733333l-1.066667 1.066667c-17.066667 12.8-28.8 32-32 52.266666l3.2 285.866667c0 51.2-30.933333 82.133333-77.866666 82.133333H647.466667c-19.2 0-30.933333-12.8-30.933334-32V772.266667c0-18.133333 2.133333-49.066667-51.2-60.8-13.866667-3.2-30.933333-5.333333-53.333333-5.333334s-39.466667 2.133333-53.333333 5.333334c-53.333333 11.733333-51.2 43.733333-51.2 60.8V896c0 19.2-12.8 32-30.933334 32H212.266667c-46.933333 0-77.866667-32-77.866667-82.133333l3.2-285.866667c-4.266667-20.266667-16-39.466667-32-52.266667l-1.066667-1.066666c-28.8-16-26.666667-28.8-27.733333-43.733334C74.666667 458.666667 74.666667 448 74.666667 445.866667c1.066667-7.466667 4.266667-13.866667 12.8-19.2l365.866666-311.466667C468.266667 102.4 490.666667 96 512 96s43.733333 6.4 58.666667 19.2L936.533333 426.666667c7.466667 6.4 11.733333 11.733333 12.8 19.2" p-id="7042"></path></svg>