<?xml version="1.0" standalone="no"?><!DOCTYPE svg PUBLIC "-//W3C//DTD SVG 1.1//EN" "http://www.w3.org/Graphics/SVG/1.1/DTD/svg11.dtd"><svg t="1729079795796" class="icon" viewBox="0 0 1024 1024" version="1.1" xmlns="http://www.w3.org/2000/svg" p-id="16412" xmlns:xlink="http://www.w3.org/1999/xlink" width="200" height="200"><path d="M444.708571 0h134.582858c134.070857 0 198.034286 16.969143 257.609142 48.859429a332.288 332.288 0 0 1 138.24 138.24C1007.030857 246.710857 1024 310.637714 1024 444.708571v134.582858c0 134.070857-16.969143 198.034286-48.859429 257.609142a332.288 332.288 0 0 1-138.24 138.24C777.289143 1007.030857 713.362286 1024 579.291429 1024h-134.582858c-134.070857 0-198.034286-16.969143-257.609142-48.859429a332.288 332.288 0 0 1-138.24-138.24C16.969143 777.289143 0 713.362286 0 579.291429v-134.582858c0-134.070857 16.969143-198.034286 48.859429-257.609142a332.288 332.288 0 0 1 138.24-138.24C246.710857 16.969143 310.637714 0 444.708571 0z" fill="#10B7F4" p-id="16413"></path><path d="M307.2 273.078857A119.478857 119.478857 0 1 1 307.2 512a119.478857 119.478857 0 0 1 0-238.921143z m409.6 0a119.478857 119.478857 0 1 1 0 238.921143 119.478857 119.478857 0 0 1 0-238.921143z" fill="#FFFFFF" p-id="16414"></path></svg>