<?xml version="1.0" standalone="no"?><!DOCTYPE svg PUBLIC "-//W3C//DTD SVG 1.1//EN" "http://www.w3.org/Graphics/SVG/1.1/DTD/svg11.dtd"><svg t="1729080215986" class="icon" viewBox="0 0 1024 1024" version="1.1" xmlns="http://www.w3.org/2000/svg" p-id="24632" xmlns:xlink="http://www.w3.org/1999/xlink" width="200" height="200"><path d="M64 128m32 0l832 0q32 0 32 32l0 0q0 32-32 32l-832 0q-32 0-32-32l0 0q0-32 32-32Z" fill="#bfbfbf" p-id="24633"></path><path d="M192 64m32 0l0 0q32 0 32 32l0 128q0 32-32 32l0 0q-32 0-32-32l0-128q0-32 32-32Z" fill="#bfbfbf" p-id="24634"></path><path d="M64 384m32 0l832 0q32 0 32 32l0 0q0 32-32 32l-832 0q-32 0-32-32l0 0q0-32 32-32Z" fill="#bfbfbf" p-id="24635"></path><path d="M576 320m32 0l0 0q32 0 32 32l0 128q0 32-32 32l0 0q-32 0-32-32l0-128q0-32 32-32Z" fill="#bfbfbf" p-id="24636"></path><path d="M64 640m32 0l416 0q32 0 32 32l0 0q0 32-32 32l-416 0q-32 0-32-32l0 0q0-32 32-32Z" fill="#bfbfbf" p-id="24637"></path><path d="M320 576m32 0l0 0q32 0 32 32l0 128q0 32-32 32l0 0q-32 0-32-32l0-128q0-32 32-32Z" fill="#bfbfbf" p-id="24638"></path><path d="M755 842a80 80 0 1 1 80-80 80.09 80.09 0 0 1-80 80z m0-96a16 16 0 1 0 16 16 16 16 0 0 0-16-16z" fill="#bfbfbf" p-id="24639"></path><path d="M802.17 960a32 32 0 0 1-31.71-27.65 15.61 15.61 0 0 0-30.92 0 32 32 0 0 1-40.44 26.44 205.13 205.13 0 0 1-86.52-50 32 32 0 0 1 2.64-48.22 15.62 15.62 0 0 0-15.47-26.78 32 32 0 0 1-43.12-21.84 205.52 205.52 0 0 1 0-99.88 32 32 0 0 1 43.12-21.84 15.62 15.62 0 0 0 15.47-26.78 32 32 0 0 1-2.64-48.22 205.13 205.13 0 0 1 86.52-50 32 32 0 0 1 40.44 26.44 15.61 15.61 0 0 0 30.92 0 32 32 0 0 1 40.44-26.44 205.13 205.13 0 0 1 86.52 50 32 32 0 0 1-2.64 48.22 15.62 15.62 0 0 0 15.47 26.78 32 32 0 0 1 43.12 21.84 205.52 205.52 0 0 1 0 99.88 32 32 0 0 1-43.12 21.84 15.62 15.62 0 0 0-15.47 26.78 32 32 0 0 1 2.64 48.22 205.13 205.13 0 0 1-86.52 50 32.15 32.15 0 0 1-8.73 1.21zM755 854.9a79.84 79.84 0 0 1 63.92 32.27 140.2 140.2 0 0 0 12.51-7.25 79.45 79.45 0 0 1 63.91-110.69q0.2-3.62 0.19-7.23t-0.19-7.23a79.45 79.45 0 0 1-63.91-110.69 140.2 140.2 0 0 0-12.51-7.25 79.44 79.44 0 0 1-127.84 0 142.58 142.58 0 0 0-12.51 7.24 79.46 79.46 0 0 1-63.91 110.7q-0.2 3.62-0.19 7.23t0.19 7.23a79.46 79.46 0 0 1 63.91 110.7 142.58 142.58 0 0 0 12.51 7.24A79.84 79.84 0 0 1 755 854.9z" fill="#bfbfbf" p-id="24640"></path></svg>